<svg xmlns="http://www.w3.org/2000/svg" width="800" height="600" viewBox="0 0 800 600" role="img" aria-labelledby="title desc">
  <title id="title">Winterfell falls placeholder art</title>
  <desc id="desc">Original smoky illustration of Winterfell walls damaged after occupation.</desc>
  <rect width="800" height="600" fill="#b58d61"/>
  <path d="M293 181 455 152 555 253 510 379 310 402 217 291Z" fill="#4d3323" stroke="#20130b" stroke-width="8"/>
  <path d="M274 391 h292 v83 H274z" fill="#372417"/>
  <path d="M0 474 C128 433 259 445 394 478 C538 513 655 506 800 452 V600 H0Z" fill="#392718" opacity=".62"/>
  <g fill="#18100b" opacity=".34">
    <circle cx="260" cy="155" r="70"/>
    <circle cx="346" cy="118" r="92"/>
    <circle cx="463" cy="125" r="84"/>
    <circle cx="561" cy="169" r="72"/>
  </g>
  <path d="M365 176 l64 85 l42-72" fill="none" stroke="#c86d31" stroke-width="11" stroke-linecap="round"/>
  <path d="M285 246 l74 61 M515 243 l-94 80" stroke="#23150c" stroke-width="9" stroke-linecap="round"/>
  <text x="56" y="80" fill="#2b1b11" font-family="Georgia, serif" font-size="31">ASH OVER WINTERFELL</text>
</svg>
