<svg xmlns="http://www.w3.org/2000/svg" viewBox="0 0 96 96" role="img" aria-labelledby="title desc">
  <title id="title">House Greyjoy redrawn kraken sigil</title>
  <desc id="desc">Original redrawn golden kraken banner button inspired by the textual House Greyjoy sigil description.</desc>
  <defs>
    <linearGradient id="frame" x1="13" y1="7" x2="83" y2="89" gradientUnits="userSpaceOnUse">
      <stop stop-color="#efd47c"/>
      <stop offset=".44" stop-color="#8d6a2b"/>
      <stop offset="1" stop-color="#13100b"/>
    </linearGradient>
    <radialGradient id="field" cx="35" cy="21" r="78" gradientUnits="userSpaceOnUse">
      <stop stop-color="#222936"/>
      <stop offset=".58" stop-color="#0d121b"/>
      <stop offset="1" stop-color="#02040a"/>
    </radialGradient>
    <filter id="shadow" x="-20%" y="-20%" width="140%" height="140%">
      <feDropShadow dx="0" dy="2" stdDeviation="2" flood-color="#000" flood-opacity=".75"/>
    </filter>
  </defs>
  <rect width="96" height="96" rx="18" fill="#05070b"/>
  <path d="M48 6 82 18v27c0 21-12 36-34 45C26 81 14 66 14 45V18L48 6Z" fill="url(#frame)"/>
  <path d="M48 12 76 22v24c0 17-10 29-28 37-18-8-28-20-28-37V22l28-10Z" fill="url(#field)"/>
  <path d="M48 25c8 0 14 6 14 14 0 6-3 11-8 13 8 5 17 6 24 0-2 11-12 17-24 11l1 14-7-11-7 11 1-14c-12 6-22 0-24-11 7 6 16 5 24 0-5-2-8-7-8-13 0-8 6-14 14-14Z" fill="#d6ad42" filter="url(#shadow)"/>
  <path d="M34 51c-8-5-12-12-10-22 5 7 10 12 17 15M62 51c8-5 12-12 10-22-5 7-10 12-17 15M39 57c-8 2-14 7-18 16 10-5 18-7 25-5M57 57c8 2 14 7 18 16-10-5-18-7-25-5" fill="none" stroke="#f3d36b" stroke-width="5" stroke-linecap="round"/>
  <path d="M43 38h2M51 38h2" stroke="#161007" stroke-width="2" stroke-linecap="round"/>
  <path d="M36 31c6-5 18-5 24 0" stroke="#f1d36a" stroke-opacity=".45" stroke-width="2" stroke-linecap="round"/>
  <path d="M25 28c10-4 20-6 30-5M25 70c14 2 30 1 46-3" stroke="#6aa0a8" stroke-opacity=".14" stroke-width="1"/>
</svg>
