<svg xmlns="http://www.w3.org/2000/svg" viewBox="0 0 96 96" role="img" aria-labelledby="title desc">
  <title id="title">House Lannister redrawn lion sigil</title>
  <desc id="desc">Original redrawn golden lion banner button inspired by the textual House Lannister sigil description.</desc>
  <defs>
    <linearGradient id="frame" x1="13" y1="7" x2="83" y2="89" gradientUnits="userSpaceOnUse">
      <stop stop-color="#f8db83"/>
      <stop offset=".44" stop-color="#9b7330"/>
      <stop offset="1" stop-color="#2b180d"/>
    </linearGradient>
    <radialGradient id="field" cx="34" cy="22" r="76" gradientUnits="userSpaceOnUse">
      <stop stop-color="#a4211e"/>
      <stop offset=".56" stop-color="#6d1717"/>
      <stop offset="1" stop-color="#300b0b"/>
    </radialGradient>
    <filter id="shadow" x="-20%" y="-20%" width="140%" height="140%">
      <feDropShadow dx="0" dy="2" stdDeviation="2" flood-color="#130608" flood-opacity=".65"/>
    </filter>
  </defs>
  <rect width="96" height="96" rx="18" fill="#140606"/>
  <path d="M48 6 82 18v27c0 21-12 36-34 45C26 81 14 66 14 45V18L48 6Z" fill="url(#frame)"/>
  <path d="M48 12 76 22v24c0 17-10 29-28 37-18-8-28-20-28-37V22l28-10Z" fill="url(#field)"/>
  <path d="M33 67c6-5 7-12 5-21-4-1-8-4-8-10 0-8 8-13 17-13 11 0 22 7 25 21-6-5-12-6-19-3 12 4 18 13 18 25-6-4-13-5-21-3 4 4 6 8 5 14-5-6-12-9-22-10Z" fill="#d7a83d" filter="url(#shadow)"/>
  <path d="M37 36c5-9 21-10 30 5-7-4-15-4-25 0 5 2 9 6 12 12-7-5-14-5-22-2 6-5 8-10 5-15Z" fill="#f0c967" opacity=".9"/>
  <path d="M50 26c-4 0-8 3-11 8l-7-3 6 7-5 7 9-2 8 5-3-8 8-7-8 1 3-8Z" fill="#a66f22"/>
  <path d="M51 36h2.5M53 41l6 1" stroke="#4d150d" stroke-width="1.5" stroke-linecap="round"/>
  <path d="M33 67c10-4 20-4 31 0M38 58c10-3 19-3 28 1" stroke="#8e5e1e" stroke-opacity=".45" stroke-width="2" stroke-linecap="round"/>
  <path d="M25 24h46M25 72h46" stroke="#f1c65e" stroke-opacity=".14" stroke-width="1"/>
</svg>
