<svg xmlns="http://www.w3.org/2000/svg" viewBox="0 0 96 96" role="img" aria-labelledby="title desc">
  <title id="title">House Bolton redrawn flayed-man inspired sigil</title>
  <desc id="desc">Original abstract red-and-pink banner button inspired by the textual House Bolton sigil description without graphic gore.</desc>
  <defs>
    <linearGradient id="frame" x1="13" y1="7" x2="83" y2="89" gradientUnits="userSpaceOnUse">
      <stop stop-color="#f2d49b"/>
      <stop offset=".44" stop-color="#8f6132"/>
      <stop offset="1" stop-color="#23120c"/>
    </linearGradient>
    <radialGradient id="field" cx="34" cy="22" r="76" gradientUnits="userSpaceOnUse">
      <stop stop-color="#f4d4cf"/>
      <stop offset=".58" stop-color="#c58a84"/>
      <stop offset="1" stop-color="#6c2a31"/>
    </radialGradient>
    <filter id="shadow" x="-20%" y="-20%" width="140%" height="140%">
      <feDropShadow dx="0" dy="2" stdDeviation="2" flood-color="#180407" flood-opacity=".55"/>
    </filter>
  </defs>
  <rect width="96" height="96" rx="18" fill="#17090a"/>
  <path d="M48 6 82 18v27c0 21-12 36-34 45C26 81 14 66 14 45V18L48 6Z" fill="url(#frame)"/>
  <path d="M48 12 76 22v24c0 17-10 29-28 37-18-8-28-20-28-37V22l28-10Z" fill="url(#field)"/>
  <path d="M48 23c5 0 8 3 8 7s-3 7-8 7-8-3-8-7 3-7 8-7Z" fill="#8f1721" filter="url(#shadow)"/>
  <path d="M48 37c8 2 14 8 19 18l-10 3 7 17-16-12-16 12 7-17-10-3c5-10 11-16 19-18Z" fill="#a51f2c" filter="url(#shadow)"/>
  <path d="M31 35 17 26M65 35l14-9M35 57 22 70M61 57l13 13" stroke="#8f1721" stroke-width="5" stroke-linecap="round"/>
  <path d="M38 42c7 3 13 3 20 0M38 52c7 4 13 4 20 0" stroke="#f0b8b0" stroke-opacity=".38" stroke-width="2" stroke-linecap="round"/>
  <path d="M27 25h42M24 70h48" stroke="#812331" stroke-opacity=".18" stroke-width="1"/>
  <g fill="#7d111c" opacity=".9">
    <circle cx="28" cy="31" r="1.4"/>
    <circle cx="70" cy="31" r="1.2"/>
    <circle cx="31" cy="67" r="1"/>
    <circle cx="65" cy="68" r=".9"/>
  </g>
</svg>
