<svg xmlns="http://www.w3.org/2000/svg" viewBox="0 0 96 96" role="img" aria-labelledby="title desc">
  <title id="title">House Baratheon redrawn crowned stag sigil</title>
  <desc id="desc">Original redrawn crowned stag banner button inspired by the textual House Baratheon sigil description.</desc>
  <defs>
    <linearGradient id="frame" x1="13" y1="7" x2="83" y2="89" gradientUnits="userSpaceOnUse">
      <stop stop-color="#f7dc82"/>
      <stop offset=".44" stop-color="#9d762c"/>
      <stop offset="1" stop-color="#2a1f0d"/>
    </linearGradient>
    <radialGradient id="field" cx="38" cy="22" r="77" gradientUnits="userSpaceOnUse">
      <stop stop-color="#f7d968"/>
      <stop offset=".55" stop-color="#c19127"/>
      <stop offset="1" stop-color="#5d4318"/>
    </radialGradient>
    <filter id="shadow" x="-20%" y="-20%" width="140%" height="140%">
      <feDropShadow dx="0" dy="2" stdDeviation="2" flood-color="#0a0703" flood-opacity=".65"/>
    </filter>
  </defs>
  <rect width="96" height="96" rx="18" fill="#130f08"/>
  <path d="M48 6 82 18v27c0 21-12 36-34 45C26 81 14 66 14 45V18L48 6Z" fill="url(#frame)"/>
  <path d="M48 12 76 22v24c0 17-10 29-28 37-18-8-28-20-28-37V22l28-10Z" fill="url(#field)"/>
  <path d="M32 31c-5-6-7-11-7-17 7 3 12 9 15 17h5v-9l-5-6 8 1 8-1-5 6v9h5c3-8 8-14 15-17 0 6-2 11-7 17l9-3c-1 7-6 12-14 15l-5 12c7 4 11 10 11 19H31c0-9 4-15 11-19l-5-12c-8-3-13-8-14-15l9 3Z" fill="#101418" filter="url(#shadow)"/>
  <path d="m37 30 7 8-4 12M59 30l-7 8 4 12" stroke="#2d2410" stroke-width="3" stroke-linecap="round"/>
  <path d="M36 24h24l-4 8H40l-4-8Z" fill="#0d1114"/>
  <path d="M38 24 42 16l6 8 6-8 4 8" fill="#151a1e"/>
  <path d="M43 48c3 4 7 4 10 0M41 42h1.5M53.5 42H55" stroke="#d5a83b" stroke-width="1.5" stroke-linecap="round"/>
  <path d="M26 29h44M24 66h48" stroke="#281d0a" stroke-opacity=".18" stroke-width="1"/>
</svg>
