<svg xmlns="http://www.w3.org/2000/svg" viewBox="0 0 96 96" role="img" aria-labelledby="title desc">
  <title id="title">House Stark redrawn direwolf sigil</title>
  <desc id="desc">Original redrawn grey direwolf banner button inspired by the textual House Stark sigil description.</desc>
  <defs>
    <linearGradient id="frame" x1="15" y1="8" x2="78" y2="88" gradientUnits="userSpaceOnUse">
      <stop stop-color="#f3d982"/>
      <stop offset=".44" stop-color="#8b6b2f"/>
      <stop offset="1" stop-color="#2b2112"/>
    </linearGradient>
    <radialGradient id="field" cx="34" cy="25" r="74" gradientUnits="userSpaceOnUse">
      <stop stop-color="#f4f7f4"/>
      <stop offset=".58" stop-color="#c7d0ca"/>
      <stop offset="1" stop-color="#7a8586"/>
    </radialGradient>
    <filter id="shadow" x="-20%" y="-20%" width="140%" height="140%">
      <feDropShadow dx="0" dy="2" stdDeviation="2" flood-color="#0b0d0f" flood-opacity=".55"/>
    </filter>
  </defs>
  <rect width="96" height="96" rx="18" fill="#120f0b"/>
  <path d="M48 6 82 18v27c0 21-12 36-34 45C26 81 14 66 14 45V18L48 6Z" fill="url(#frame)"/>
  <path d="M48 12 76 22v24c0 17-10 29-28 37-18-8-28-20-28-37V22l28-10Z" fill="url(#field)"/>
  <path d="M22 48c14-15 28-21 44-18l8-8-1 12 8 4-12 3-8 9 7 9-14-3-13 9 3-12-14 6 6-12-14 1Z" fill="#5e6b70" filter="url(#shadow)"/>
  <path d="M31 48c11-10 22-14 35-12l-9 8-5 11-12 5 3-10-12 5 5-9-5 2Z" fill="#9aa4a6" opacity=".75"/>
  <path d="m62 33 5-7 1 9 7 3-10 1-6 7-1-7-9-1 9-2 4-3Z" fill="#2c3336"/>
  <path d="M63 36h2.8" stroke="#e8f1ef" stroke-width="1.3" stroke-linecap="round"/>
  <path d="M28 24h40M25 32h46M24 70h49" stroke="#445055" stroke-opacity=".18" stroke-width="1"/>
  <g fill="#f8fbfa" opacity=".8">
    <circle cx="29" cy="28" r="1.2"/>
    <circle cx="68" cy="61" r="1.1"/>
    <circle cx="37" cy="74" r=".9"/>
    <circle cx="73" cy="29" r=".8"/>
  </g>
</svg>
